<?xml version="1.0" encoding="UTF-8" standalone="no"?><!DOCTYPE svg PUBLIC "-//W3C//DTD SVG 1.1//EN" "http://www.w3.org/Graphics/SVG/1.1/DTD/svg11.dtd"><svg width="100%" height="100%" viewBox="0 0 878 246" version="1.1" xmlns="http://www.w3.org/2000/svg" xmlns:xlink="http://www.w3.org/1999/xlink" xml:space="preserve" xmlns:serif="http://www.serif.com/" style="fill-rule:evenodd;clip-rule:evenodd;stroke-linecap:round;stroke-linejoin:round;stroke-miterlimit:1.5;"><g><path d="M875.758,2c0,0 -119.983,146.969 -340.367,191.908c-164.119,33.466 -365.117,-3.129 -533.391,-182.908" style="fill:none;stroke:#000;stroke-width:4px;"/><g><path d="M177.653,155.161l7.176,-20.797l12.289,4.24l-7.176,20.797l-12.289,-4.24Z" style="fill:#fff;stroke:#000;stroke-width:3px;"/><path d="M179.536,155.81c0,0 -22.591,14.046 -5.62,32.971c0,0 23.789,-7.575 13.827,-30.139" style="fill:none;stroke:#000;stroke-width:3px;"/></g><g><path d="M63.778,82.188l10.139,-19.524l11.537,5.991l-10.139,19.524l-11.537,-5.991Z" style="fill:#fff;stroke:#000;stroke-width:3px;"/><path d="M65.546,83.106c0,0 -24.402,10.592 -10.379,31.795c0,0 24.641,-4.016 18.084,-27.794" style="fill:none;stroke:#000;stroke-width:3px;"/></g><g><path d="M319.382,201.088l4.38,-21.56l12.74,2.588l-4.38,21.56l-12.74,-2.588Z" style="fill:#fff;stroke:#000;stroke-width:3px;"/><path d="M321.334,201.484c0,0 -20.549,16.894 -1.237,33.423c0,0 22.587,-10.636 9.746,-31.694" style="fill:none;stroke:#000;stroke-width:3px;"/></g><g><path d="M482.696,210.732l-1.46,-21.951l-12.971,0.863l1.46,21.951l12.971,-0.863Z" style="fill:#fff;stroke:#000;stroke-width:3px;"/><path d="M480.709,210.864c0,0 18.108,19.487 -3.239,33.289c0,0 -20.964,-13.558 -5.424,-32.712" style="fill:none;stroke:#000;stroke-width:3px;"/></g><g><path d="M628.743,179.905l-11.057,-19.02l11.239,-6.534l11.057,19.02l-11.239,6.534Z" style="fill:#fff;stroke:#000;stroke-width:3px;"/><path d="M630.465,178.904c0,0 -4.125,26.279 21.29,25.794c0,0 9.807,-22.959 -13.784,-30.158" style="fill:none;stroke:#000;stroke-width:3px;"/></g><g><path d="M776.518,101.553l-7.298,-20.754l12.264,-4.313l7.298,20.754l-12.264,4.313Z" style="fill:#fff;stroke:#000;stroke-width:3px;"/><path d="M778.398,100.892c0,0 -8.976,25.042 16.081,29.326c0,0 13.934,-20.715 -7.891,-32.206" style="fill:none;stroke:#000;stroke-width:3px;"/></g></g></svg>