<?xml version="1.0" encoding="UTF-8" standalone="no"?>
<!DOCTYPE svg PUBLIC "-//W3C//DTD SVG 1.1//EN" "http://www.w3.org/Graphics/SVG/1.1/DTD/svg11.dtd">
<svg width="100%" height="100%" viewBox="0 0 868 278" version="1.1" xmlns="http://www.w3.org/2000/svg" xmlns:xlink="http://www.w3.org/1999/xlink" xml:space="preserve" xmlns:serif="http://www.serif.com/" style="fill-rule:evenodd;clip-rule:evenodd;stroke-linecap:round;stroke-linejoin:round;stroke-miterlimit:1.5;">
    <g transform="matrix(1,0,0,1,20.5563,22)">
        <g transform="matrix(0.987399,0.158249,-0.158249,0.987399,397.904,-4447.65)">
            <g transform="matrix(1,0,0,1,131.569,-1000.16)">
                <path d="M1010.77,5301.23C1010.77,5301.23 853.259,5509.18 639.896,5580.35C493.097,5629.32 305.356,5597.66 177.301,5559.02" style="fill:none;stroke:black;stroke-width:4px;"/>
            </g>
            <g transform="matrix(0.955732,0.29424,-0.29424,0.955732,1104.32,20.9285)">
                <rect x="706" y="4567" width="13" height="22" style="fill:white;stroke:black;stroke-width:3px;"/>
                <g transform="matrix(1.24032,0,0,0.871795,-171.398,588.333)">
                    <path d="M709,4589C709,4589 695.476,4612.68 713.388,4626.85C713.388,4626.85 729.526,4609.74 716,4589" style="fill:none;stroke:black;stroke-width:2.8px;"/>
                </g>
            </g>
            <g transform="matrix(0.999139,0.0414933,-0.0414933,0.999139,90.4572,16.1049)">
                <rect x="706" y="4567" width="13" height="22" style="fill:white;stroke:black;stroke-width:3px;"/>
                <g transform="matrix(1.24032,0,0,0.871795,-171.398,588.333)">
                    <path d="M709,4589C709,4589 695.476,4612.68 713.388,4626.85C713.388,4626.85 729.526,4609.74 716,4589" style="fill:none;stroke:black;stroke-width:2.8px;"/>
                </g>
            </g>
            <g transform="matrix(-0.974716,0.223448,0.223448,0.974716,454.633,-38.7924)">
                <rect x="706" y="4567" width="13" height="22" style="fill:white;stroke:black;stroke-width:3px;"/>
                <g transform="matrix(1.24032,0,0,0.871795,-171.398,588.333)">
                    <path d="M709,4589C709,4589 695.476,4612.68 713.388,4626.85C713.388,4626.85 729.526,4609.74 716,4589" style="fill:none;stroke:black;stroke-width:2.8px;"/>
                </g>
            </g>
            <g transform="matrix(0.774093,-0.633071,0.633071,0.774093,-2520.17,1415.88)">
                <rect x="706" y="4567" width="13" height="22" style="fill:white;stroke:black;stroke-width:3px;"/>
                <g transform="matrix(1.24032,0,0,0.871795,-171.398,588.333)">
                    <path d="M709,4589C709,4589 695.476,4612.68 713.388,4626.85C713.388,4626.85 729.526,4609.74 716,4589" style="fill:none;stroke:black;stroke-width:2.8px;"/>
                </g>
            </g>
            <g transform="matrix(0.878983,-0.476853,0.476853,0.878983,-1755.36,714.73)">
                <rect x="706" y="4567" width="13" height="22" style="fill:white;stroke:black;stroke-width:3px;"/>
                <g transform="matrix(1.24032,0,0,0.871795,-171.398,588.333)">
                    <path d="M709,4589C709,4589 695.476,4612.68 713.388,4626.85C713.388,4626.85 729.526,4609.74 716,4589" style="fill:none;stroke:black;stroke-width:2.8px;"/>
                </g>
            </g>
        </g>
    </g>
</svg>
